<svg width="136" height="242" viewBox="0 0 136 242" fill="none" xmlns="http://www.w3.org/2000/svg">
<path d="M112.42 193.455L69.2386 71.0114H67.5341L24.3523 193.455H5.88636L59.2955 48H77.4773L130.886 193.455H112.42Z" fill="white"/>
<path d="M75.3182 123.818C75.1136 122.091 74.2841 120.75 72.8295 119.795C71.375 118.841 69.5909 118.364 67.4773 118.364C65.9318 118.364 64.5795 118.614 63.4205 119.114C62.2727 119.614 61.375 120.301 60.7273 121.176C60.0909 122.051 59.7727 123.045 59.7727 124.159C59.7727 125.091 59.9943 125.892 60.4375 126.562C60.892 127.222 61.4716 127.773 62.1761 128.216C62.8807 128.648 63.6193 129.006 64.392 129.29C65.1648 129.562 65.875 129.784 66.5227 129.955L70.0682 130.909C70.9773 131.148 71.9886 131.477 73.1023 131.898C74.2273 132.318 75.3011 132.892 76.3239 133.619C77.358 134.335 78.2102 135.256 78.8807 136.381C79.5511 137.506 79.8864 138.886 79.8864 140.523C79.8864 142.409 79.392 144.114 78.4034 145.636C77.4261 147.159 75.9943 148.369 74.108 149.267C72.233 150.165 69.9545 150.614 67.2727 150.614C64.7727 150.614 62.608 150.21 60.7784 149.403C58.9602 148.597 57.5284 147.472 56.483 146.028C55.4489 144.585 54.8636 142.909 54.7273 141H59.0909C59.2045 142.318 59.6477 143.409 60.4205 144.273C61.2045 145.125 62.1932 145.761 63.3864 146.182C64.5909 146.591 65.8864 146.795 67.2727 146.795C68.8864 146.795 70.3352 146.534 71.6193 146.011C72.9034 145.477 73.9205 144.739 74.6705 143.795C75.4205 142.841 75.7955 141.727 75.7955 140.455C75.7955 139.295 75.4716 138.352 74.8239 137.625C74.1761 136.898 73.3239 136.307 72.267 135.852C71.2102 135.398 70.0682 135 68.8409 134.659L64.5455 133.432C61.8182 132.648 59.6591 131.528 58.0682 130.074C56.4773 128.619 55.6818 126.716 55.6818 124.364C55.6818 122.409 56.2102 120.705 57.267 119.25C58.3352 117.784 59.767 116.648 61.5625 115.841C63.3693 115.023 65.3864 114.614 67.6136 114.614C69.8636 114.614 71.8636 115.017 73.6136 115.824C75.3636 116.619 76.75 117.71 77.7727 119.097C78.8068 120.483 79.3523 122.057 79.4091 123.818H75.3182Z" fill="white"/>
<path d="M49.6364 195V148.455H55.2727V169.182H80.0909V148.455H85.7273V195H80.0909V174.182H55.2727V195H49.6364Z" fill="white"/>
</svg>
