<svg width="63" height="124" viewBox="0 0 63 124" fill="none" xmlns="http://www.w3.org/2000/svg">
<path d="M34.68 24C35.64 24 36.408 24.224 36.984 24.672C37.496 25.12 37.912 25.728 38.232 26.496L59.64 88.224C59.768 88.608 59.832 88.96 59.832 89.28C59.832 89.792 59.64 90.24 59.256 90.624C58.872 91.008 58.424 91.2 57.912 91.2H52.92C52.152 91.2 51.576 90.976 51.192 90.528C50.744 90.144 50.488 89.792 50.424 89.472L31.608 35.04L12.792 89.472C12.664 89.792 12.408 90.144 12.024 90.528C11.64 90.976 11.064 91.2 10.296 91.2H5.304C4.792 91.2 4.344 91.008 3.96 90.624C3.512 90.24 3.288 89.792 3.288 89.28C3.288 88.96 3.352 88.608 3.48 88.224L24.984 26.496C25.24 25.728 25.656 25.12 26.232 24.672C26.744 24.224 27.48 24 28.44 24H34.68Z" fill="black"/>
<path d="M31.16 110.55C27.97 110.55 25.2933 110.073 23.13 109.12C20.9667 108.13 19.2983 106.865 18.125 105.325C16.9883 103.748 16.3833 102.08 16.31 100.32C16.31 100.027 16.42 99.77 16.64 99.55C16.8967 99.2933 17.19 99.165 17.52 99.165H20.325C20.765 99.165 21.095 99.275 21.315 99.495C21.535 99.715 21.6817 99.9717 21.755 100.265C21.9383 101.145 22.3783 102.025 23.075 102.905C23.8083 103.748 24.8167 104.463 26.1 105.05C27.42 105.6 29.1067 105.875 31.16 105.875C34.3133 105.875 36.6233 105.325 38.09 104.225C39.5933 103.088 40.345 101.585 40.345 99.715C40.345 98.4317 39.9417 97.405 39.135 96.635C38.365 95.8283 37.1733 95.1133 35.56 94.49C33.9467 93.8667 31.8567 93.1883 29.29 92.455C26.6133 91.685 24.395 90.8417 22.635 89.925C20.875 89.0083 19.555 87.8717 18.675 86.515C17.8317 85.1583 17.41 83.435 17.41 81.345C17.41 79.365 17.9417 77.605 19.005 76.065C20.0683 74.4883 21.59 73.2417 23.57 72.325C25.5867 71.4083 28.025 70.95 30.885 70.95C33.1583 70.95 35.1383 71.2617 36.825 71.885C38.5483 72.4717 39.9783 73.2783 41.115 74.305C42.2517 75.295 43.1133 76.3767 43.7 77.55C44.2867 78.6867 44.5983 79.805 44.635 80.905C44.635 81.1617 44.5433 81.4183 44.36 81.675C44.1767 81.895 43.8833 82.005 43.48 82.005H40.565C40.3083 82.005 40.0333 81.9317 39.74 81.785C39.4833 81.6383 39.2817 81.3633 39.135 80.96C38.915 79.4567 38.0717 78.1917 36.605 77.165C35.1383 76.1383 33.2317 75.625 30.885 75.625C28.5017 75.625 26.5583 76.0833 25.055 77C23.5883 77.9167 22.855 79.3467 22.855 81.29C22.855 82.5367 23.2033 83.5817 23.9 84.425C24.5967 85.2317 25.6967 85.9467 27.2 86.57C28.7033 87.1933 30.665 87.8533 33.085 88.55C36.0183 89.3567 38.42 90.2183 40.29 91.135C42.16 92.015 43.535 93.1333 44.415 94.49C45.3317 95.81 45.79 97.515 45.79 99.605C45.79 101.915 45.185 103.895 43.975 105.545C42.765 107.158 41.06 108.405 38.86 109.285C36.6967 110.128 34.13 110.55 31.16 110.55Z" fill="black"/>
</svg>
